<?xml version="1.0" encoding="UTF-8"?>
<svg width="128" height="128" viewBox="0 0 128 128" xmlns="http://www.w3.org/2000/svg">
  <!-- Background -->
  <rect width="128" height="128" rx="16" fill="#1e1e1e"/>
  
  <!-- Folder icon -->
  <path d="M 20 40 L 20 30 Q 20 25 25 25 L 55 25 L 60 30 L 103 30 Q 108 30 108 35 L 108 40 Z" fill="#c5a05a"/>
  <rect x="20" y="40" width="88" height="60" rx="5" fill="#e8c07a"/>
  
  <!-- Git branch icon -->
  <circle cx="50" cy="70" r="6" fill="#f34f29"/>
  <circle cx="78" cy="55" r="6" fill="#f34f29"/>
  <circle cx="78" cy="85" r="6" fill="#f34f29"/>
  <path d="M 56 70 L 72 70 M 72 55 L 72 85" stroke="#f34f29" stroke-width="4" fill="none"/>
  
  <!-- Small folder indicators -->
  <rect x="92" y="20" width="20" height="16" rx="2" fill="#94a3b8" opacity="0.6"/>
  <rect x="92" y="92" width="20" height="16" rx="2" fill="#94a3b8" opacity="0.6"/>
  <rect x="16" y="92" width="20" height="16" rx="2" fill="#94a3b8" opacity="0.6"/>
</svg>